<svg xmlns="http://www.w3.org/2000/svg" height="48" viewBox="0 -960 960 960" width="48">
    <path d="M481.93-250q17.55 0 31.31-13.43Q527-276.859 527-294.908q0-18.05-13.69-31.071Q499.621-339 481.57-339q-18.05 0-31.31 12.871-13.26 12.87-13.26 31.58Q437-277 450.32-263.5q13.319 13.5 31.61 13.5ZM440-394h72q0-23.07 6.5-44.035Q525-459 555-485q30-22 42-47.574 12-25.573 12-57.156 0-55.686-31.781-88.978Q545.438-712 488.792-712 436-712 396-684t-59 74.147L404-585q11-28 31.986-43.5T481-644q24.5 0 41.75 14.901Q540-614.197 540-589.316 540-571 528.786-552.5 517.571-534 498-518q-28 23-43 52.07T440-394Zm39.679 335q-86.319 0-163.646-32.604-77.328-32.603-134.577-89.852-57.249-57.249-89.852-134.57Q59-393.346 59-479.862q0-87.41 32.662-164.275 32.663-76.865 90.203-134.412 57.54-57.547 134.411-90.499Q393.147-902 479.336-902q87.55 0 164.885 32.858 77.334 32.858 134.56 90.257 57.225 57.399 90.222 134.514Q902-567.257 902-479.458q0 86.734-32.952 163.382-32.952 76.648-90.499 134.2-57.547 57.551-134.421 90.214Q567.255-59 479.679-59Z"/></svg>